<?xml version="1.0" standalone="no"?>
<!DOCTYPE svg PUBLIC "-//W3C//DTD SVG 20010904//EN"
 "http://www.w3.org/TR/2001/REC-SVG-20010904/DTD/svg10.dtd">
<svg version="1.0" xmlns="http://www.w3.org/2000/svg"
 width="2700.000000pt" height="2700.000000pt" viewBox="0 0 2700.000000 2700.000000"
 preserveAspectRatio="xMidYMid meet">
<metadata>
Created by potrace 1.14, written by Peter Selinger 2001-2017
</metadata>
<g transform="translate(0.000000,2700.000000) scale(0.100000,-0.100000)"
fill="#000000" stroke="none">
<path d="M3715 26933 c-810 -54 -1571 -351 -2205 -859 -174 -140 -447 -412
-584 -584 -413 -516 -682 -1103 -800 -1743 -31 -165 -31 -167 -8 -167 20 0 32
9 148 122 55 52 89 78 105 78 17 0 54 30 124 100 73 73 106 100 125 100 17 0
48 23 103 75 42 41 84 75 93 75 9 0 36 17 59 38 76 66 123 102 137 102 8 0 36
23 63 50 36 36 57 50 77 50 27 0 45 14 150 113 16 15 39 27 51 27 13 0 36 14
52 30 16 17 38 30 49 30 11 0 41 20 66 45 32 31 57 47 80 50 19 2 41 13 50 24
8 11 29 23 45 27 17 3 52 25 79 50 28 25 59 44 72 44 12 0 36 11 52 25 17 14
39 25 50 25 11 0 27 11 36 25 11 17 29 27 56 31 21 4 47 15 56 25 9 11 28 19
42 19 13 0 37 11 54 25 16 14 38 25 48 25 11 0 31 11 46 25 15 14 39 25 54 25
15 0 35 9 44 19 10 10 32 22 50 25 18 4 41 15 51 26 10 11 28 20 41 20 12 0
36 11 52 25 22 18 42 25 74 25 31 0 54 7 78 25 29 21 45 25 107 25 66 0 74 2
89 25 10 16 26 25 42 25 14 0 40 11 58 25 27 21 47 26 130 31 73 5 105 12 123
25 19 16 42 19 119 19 85 0 98 2 120 23 23 21 32 22 227 25 186 3 204 5 221
23 25 28 133 28 159 -1 16 -18 31 -20 141 -20 116 0 124 -1 152 -25 28 -23 38
-25 129 -25 85 0 102 -3 117 -19 13 -14 36 -19 102 -24 68 -4 90 -9 108 -26
12 -12 42 -24 69 -27 29 -4 57 -16 73 -30 19 -18 36 -24 73 -24 32 0 57 -6 72
-18 13 -11 46 -22 73 -25 38 -6 60 -17 102 -52 45 -39 58 -45 97 -45 34 0 53
-6 75 -25 17 -14 38 -25 47 -25 9 0 42 -22 72 -50 42 -39 62 -50 87 -50 20 0
40 -8 50 -19 10 -11 30 -22 44 -26 15 -3 48 -27 73 -51 36 -36 56 -47 90 -51
62 -8 77 -18 85 -58 5 -28 12 -35 38 -41 17 -3 44 -17 59 -30 16 -13 37 -24
48 -24 26 0 99 -60 99 -82 0 -26 -20 -33 -85 -29 -41 1 -66 8 -80 20 -12 11
-42 21 -74 24 -40 3 -59 10 -72 25 -12 16 -33 23 -75 28 -35 4 -67 14 -79 25
-16 14 -39 18 -105 20 -82 1 -150 18 -150 37 0 5 -37 12 -82 16 -59 5 -88 12
-103 25 -17 16 -41 20 -148 23 -113 4 -130 7 -150 26 l-23 22 -562 0 -561 0
-21 -22 c-19 -21 -33 -23 -151 -28 -108 -4 -133 -8 -143 -22 -8 -11 -33 -20
-72 -24 -35 -4 -67 -14 -79 -25 -15 -13 -45 -19 -128 -25 -67 -4 -110 -11
-115 -19 -9 -16 -46 -35 -68 -35 -10 0 -28 -9 -40 -21 -14 -13 -38 -21 -67
-23 -28 -2 -56 -12 -73 -25 -14 -11 -36 -21 -47 -21 -12 0 -33 -12 -48 -26
-19 -18 -42 -28 -76 -31 -26 -3 -57 -13 -68 -23 -11 -10 -36 -21 -55 -25 -19
-4 -43 -16 -53 -26 -10 -11 -30 -19 -46 -19 -16 0 -37 -10 -51 -25 -13 -14
-34 -25 -46 -25 -12 0 -36 -11 -52 -25 -17 -14 -38 -25 -47 -25 -10 0 -33 -13
-52 -30 -18 -16 -43 -30 -55 -30 -11 0 -45 -20 -74 -45 -28 -25 -62 -45 -74
-45 -13 0 -43 -21 -72 -50 -28 -27 -57 -50 -65 -50 -8 0 -39 -20 -69 -44 -29
-24 -68 -48 -86 -52 -20 -4 -47 -23 -70 -49 -23 -26 -49 -45 -68 -49 -17 -3
-54 -27 -82 -53 -27 -27 -63 -60 -79 -75 -16 -16 -37 -28 -47 -28 -9 0 -42
-23 -72 -52 -30 -28 -75 -69 -99 -92 -24 -23 -58 -46 -74 -52 -21 -7 -33 -20
-39 -40 -8 -32 -32 -54 -58 -54 -16 0 -152 -124 -334 -304 -44 -43 -94 -85
-111 -92 -16 -7 -84 -66 -151 -131 -66 -65 -160 -156 -210 -203 -49 -47 -115
-112 -147 -145 -31 -33 -80 -82 -107 -109 l-50 -49 1 -1686 c1 -927 5 -1661 8
-1631 4 35 14 66 29 84 12 16 22 39 22 51 0 12 11 32 25 45 14 13 25 34 25 48
0 13 11 37 25 54 18 22 25 41 25 74 0 31 6 50 20 64 11 11 23 35 27 53 3 18
17 45 30 60 12 16 23 36 23 46 0 10 8 26 19 35 10 9 21 34 25 56 3 21 14 45
24 52 11 7 22 26 26 42 4 16 27 53 52 81 37 44 44 59 44 95 0 36 7 50 50 100
31 36 50 67 50 83 0 15 9 31 25 41 16 11 25 26 25 44 0 19 16 43 50 80 28 29
50 62 50 74 0 11 20 45 45 74 25 28 45 60 45 70 0 9 25 43 55 75 37 39 55 66
55 83 0 14 6 29 14 33 24 14 126 144 126 161 0 9 31 50 70 90 38 40 73 85 77
101 5 15 49 72 98 125 50 54 95 109 100 124 11 29 44 66 203 230 57 58 116
122 130 141 15 19 35 43 45 53 9 10 17 22 17 28 0 5 96 107 213 225 l213 215
80 0 c73 0 83 -2 104 -25 19 -20 33 -25 71 -25 36 0 55 -6 77 -25 23 -19 41
-25 79 -25 40 0 54 -5 73 -25 21 -22 32 -25 96 -25 63 0 76 -3 102 -25 21 -18
42 -25 70 -25 29 0 49 -7 70 -25 22 -19 41 -25 75 -25 28 0 53 -7 68 -19 16
-12 50 -20 103 -25 64 -6 85 -12 109 -32 21 -17 37 -24 53 -20 27 7 74 -9 91
-30 8 -11 36 -18 90 -21 59 -4 86 -11 113 -29 27 -18 44 -23 67 -18 36 7 73
-10 73 -34 0 -10 -19 -32 -42 -50 -31 -24 -52 -32 -83 -32 -28 0 -52 -8 -75
-25 -21 -15 -47 -25 -69 -25 -21 0 -49 -10 -71 -25 -29 -20 -53 -27 -110 -30
-55 -4 -79 -10 -95 -25 -15 -14 -35 -20 -69 -20 -37 0 -55 -6 -78 -25 -22 -19
-41 -25 -75 -25 -34 0 -53 -6 -75 -25 -25 -21 -40 -25 -98 -25 -60 0 -72 -3
-94 -25 -20 -20 -35 -25 -77 -25 -42 0 -56 -5 -75 -25 -18 -20 -33 -25 -70
-25 -29 0 -59 -7 -79 -20 -23 -14 -58 -22 -126 -27 l-94 -6 -45 -44 c-29 -28
-54 -43 -71 -43 -15 0 -37 -12 -54 -30 -16 -16 -38 -30 -49 -30 -20 0 -86 -68
-86 -88 0 -5 -75 -87 -167 -182 -92 -94 -175 -182 -183 -194 -8 -12 -32 -40
-53 -61 -22 -20 -43 -51 -49 -67 -6 -15 -19 -33 -29 -39 -10 -5 -19 -20 -19
-32 0 -24 -35 -77 -75 -115 -14 -13 -25 -34 -25 -47 0 -14 -10 -35 -22 -47
-46 -45 -78 -91 -78 -113 0 -12 -11 -31 -25 -43 -14 -12 -25 -31 -25 -43 0
-12 -11 -34 -25 -51 -14 -16 -25 -39 -25 -50 0 -11 -11 -33 -25 -50 -14 -16
-25 -40 -25 -52 0 -12 -11 -33 -25 -46 -15 -14 -25 -35 -25 -50 0 -15 -11 -40
-25 -56 -18 -21 -25 -41 -25 -71 0 -33 -7 -50 -32 -80 -18 -21 -39 -42 -45
-46 -8 -5 -13 -28 -13 -56 0 -35 -7 -56 -25 -81 -17 -24 -25 -47 -25 -76 0
-30 -7 -51 -23 -71 -13 -15 -27 -41 -31 -58 -4 -16 -16 -39 -26 -50 -12 -14
-19 -42 -22 -91 -4 -52 -11 -80 -27 -102 -16 -23 -21 -45 -21 -95 0 -54 -4
-70 -24 -94 -15 -19 -25 -45 -28 -81 -3 -35 -12 -60 -27 -75 -18 -20 -21 -35
-21 -100 0 -66 -3 -79 -23 -97 -15 -14 -22 -33 -23 -58 -2 -96 -5 -112 -28
-139 -19 -23 -24 -42 -27 -103 -3 -59 -9 -82 -26 -103 -19 -25 -21 -40 -22
-165 -1 -128 -3 -139 -26 -172 -20 -29 -25 -48 -25 -101 0 -54 -4 -71 -25 -99
-23 -31 -25 -42 -25 -148 0 -104 -2 -117 -22 -141 -22 -25 -23 -37 -26 -196
-3 -146 -6 -174 -22 -196 -13 -19 -20 -53 -25 -130 -7 -91 -11 -107 -31 -126
-22 -20 -24 -30 -24 -118 0 -79 -4 -102 -19 -123 -15 -23 -19 -54 -25 -197 -6
-145 -10 -174 -27 -197 -15 -21 -19 -44 -19 -107 0 -82 -9 -122 -35 -147 -11
-12 -15 -41 -15 -123 0 -110 -11 -165 -35 -174 -9 -4 -15 -38 -20 -112 -6 -87
-11 -110 -26 -123 -15 -13 -19 -30 -19 -80 0 -34 -7 -79 -15 -99 -13 -31 -15
-538 -15 -4354 l0 -4319 109 -113 c59 -61 112 -123 116 -137 8 -28 28 -49 383
-405 315 -316 417 -413 450 -428 15 -6 70 -53 122 -103 246 -241 296 -286 322
-291 15 -3 51 -30 81 -62 108 -113 197 -191 220 -191 14 0 46 -25 92 -73 91
-94 178 -167 200 -167 9 0 63 -45 119 -99 122 -120 159 -151 179 -151 9 0 59
-43 112 -95 61 -60 108 -98 129 -103 20 -6 68 -44 127 -101 52 -50 105 -94
119 -97 14 -3 81 -59 150 -125 74 -71 136 -122 152 -126 16 -3 82 -59 170
-144 78 -77 164 -155 189 -174 26 -20 50 -42 53 -50 3 -8 12 -15 21 -15 18 0
81 -56 256 -230 70 -69 212 -208 315 -311 104 -102 205 -202 224 -223 19 -21
71 -74 115 -119 44 -45 126 -129 183 -186 62 -63 102 -113 102 -125 0 -12 31
-54 71 -96 39 -41 76 -87 82 -102 11 -25 30 -48 150 -184 26 -30 47 -62 47
-72 0 -10 20 -40 45 -65 25 -26 45 -54 45 -61 0 -8 23 -41 50 -74 27 -33 50
-69 50 -79 0 -22 64 -108 86 -117 8 -3 14 -14 14 -24 0 -18 47 -89 83 -124 9
-10 17 -28 17 -41 0 -13 11 -34 25 -47 15 -14 25 -35 25 -52 0 -18 9 -36 25
-50 14 -12 25 -32 25 -46 0 -13 11 -37 25 -54 14 -16 25 -37 25 -47 0 -10 11
-28 25 -41 15 -14 25 -35 25 -50 0 -15 9 -39 20 -53 11 -14 20 -34 20 -45 0
-11 11 -34 25 -50 14 -17 25 -39 25 -50 0 -11 11 -34 25 -50 14 -17 25 -37 25
-46 0 -15 194 -16 2290 -16 2201 0 2290 1 2281 18 -5 10 -28 33 -51 52 -23 19
-62 54 -87 77 -26 24 -55 43 -65 43 -10 0 -42 25 -71 56 -67 72 -195 179 -226
189 -14 4 -50 33 -81 64 -114 113 -185 176 -212 186 -15 6 -101 82 -193 170
-91 88 -179 165 -194 170 -29 10 -71 49 -383 348 -82 78 -157 144 -168 147
-29 7 -690 669 -690 691 0 25 -72 99 -98 99 -23 0 -52 34 -52 62 0 9 -34 52
-75 95 -41 43 -75 84 -75 92 0 15 -76 107 -147 180 -24 24 -46 55 -50 70 -3
14 -37 60 -75 102 -37 42 -68 84 -68 95 0 10 -23 41 -50 69 -30 29 -50 58 -50
71 0 13 -11 36 -25 52 -14 17 -25 35 -25 42 0 17 -47 94 -70 115 -11 10 -20
29 -20 41 0 14 -13 35 -30 51 -19 16 -30 36 -30 52 0 15 -11 36 -25 50 -15 13
-25 34 -25 50 0 16 -9 36 -20 46 -11 10 -20 28 -20 41 0 12 -11 36 -25 52 -14
17 -25 41 -25 54 0 14 -11 35 -25 48 -20 19 -25 33 -25 72 0 39 -5 52 -25 70
-20 17 -25 31 -25 69 0 36 -6 55 -25 77 -18 22 -25 42 -25 74 0 31 -7 54 -25
78 -19 26 -25 46 -25 85 0 42 -5 56 -25 75 -21 20 -25 33 -25 81 0 39 5 61 16
70 23 19 48 -1 55 -44 4 -27 23 -53 77 -108 40 -40 72 -81 72 -92 0 -10 11
-32 25 -49 14 -16 25 -38 25 -48 0 -18 15 -40 73 -103 15 -16 27 -39 27 -49 0
-16 73 -100 163 -188 10 -10 24 -34 31 -54 8 -22 56 -80 129 -155 71 -73 117
-128 117 -140 0 -21 158 -192 330 -357 47 -45 88 -86 93 -91 135 -147 322
-321 361 -337 21 -9 69 -46 106 -84 117 -117 224 -208 251 -215 15 -4 55 -37
90 -74 78 -84 126 -123 151 -123 12 0 63 -41 120 -95 64 -61 108 -95 122 -95
13 0 41 -20 70 -49 27 -27 60 -51 75 -55 14 -3 60 -37 101 -75 41 -39 83 -70
93 -71 11 0 44 -22 75 -50 31 -27 65 -50 76 -50 12 0 54 -32 98 -75 47 -46 85
-75 98 -75 12 0 45 -20 73 -46 29 -25 64 -48 79 -51 15 -3 62 -38 105 -79 42
-41 85 -74 96 -74 10 0 43 -20 74 -45 30 -25 62 -45 71 -45 8 0 41 -25 73 -55
32 -31 67 -55 79 -55 11 0 42 -20 68 -45 26 -25 56 -45 67 -45 11 0 45 -23 75
-50 30 -28 64 -50 76 -50 13 0 51 -28 95 -70 47 -45 82 -70 97 -70 12 0 39
-16 60 -35 61 -58 66 -62 92 -70 14 -4 50 -30 81 -56 31 -27 66 -49 77 -49 11
0 52 -31 93 -70 41 -39 86 -73 102 -77 15 -3 58 -33 95 -68 37 -34 81 -66 97
-72 17 -6 62 -40 100 -77 39 -36 78 -66 87 -66 10 0 54 -33 99 -72 45 -40 98
-78 118 -85 28 -10 529 -13 2369 -13 l2332 0 0 85 c0 69 -4 91 -19 113 -16 21
-21 48 -24 124 -3 83 -7 101 -25 120 -16 18 -22 40 -26 102 -5 59 -11 84 -24
97 -15 13 -20 39 -26 120 -6 83 -11 108 -27 125 -13 14 -19 35 -19 70 0 40 -5
55 -24 73 -16 15 -26 38 -30 73 -4 29 -16 64 -27 79 -12 17 -19 44 -19 72 0
35 -6 50 -30 75 -17 18 -30 41 -30 53 0 11 -9 32 -20 46 -14 17 -20 41 -20 73
0 37 -5 51 -25 70 -14 13 -25 34 -25 47 0 13 -8 31 -17 41 -67 68 -83 94 -83
133 0 35 -8 51 -50 101 -27 33 -50 66 -50 73 0 14 -27 48 -102 130 -27 29 -48
61 -48 73 0 22 -37 72 -84 111 -16 14 -47 45 -70 69 -38 41 -150 151 -237 233
-20 19 -61 62 -92 96 -53 58 -57 66 -57 111 0 36 -5 54 -20 67 -17 15 -20 31
-20 105 0 79 2 89 22 102 18 12 21 23 19 66 -1 49 1 54 49 107 30 33 50 64 50
79 0 28 15 42 55 52 16 4 49 27 74 51 28 26 59 45 79 49 51 10 129 -3 161 -26
16 -11 38 -20 49 -20 10 0 33 -14 50 -30 18 -16 40 -30 50 -30 11 0 27 -8 36
-19 9 -10 34 -21 55 -25 21 -3 45 -14 55 -25 9 -10 29 -21 44 -25 37 -8 142
-105 142 -131 0 -29 -19 -45 -52 -45 -17 0 -31 -7 -37 -19 -6 -10 -27 -23 -48
-28 -27 -6 -38 -15 -43 -33 -4 -14 -41 -61 -83 -105 -69 -72 -76 -84 -77 -121
0 -27 -8 -51 -25 -74 -23 -32 -25 -42 -25 -149 0 -64 3 -140 6 -168 6 -48 9
-54 38 -62 37 -10 84 -50 222 -188 57 -57 111 -103 121 -103 27 0 60 -26 67
-53 5 -23 44 -71 144 -178 28 -30 52 -64 52 -74 0 -10 21 -42 48 -70 76 -84
92 -106 92 -125 0 -10 11 -31 24 -47 14 -16 28 -43 32 -59 3 -16 17 -39 30
-52 13 -13 24 -33 24 -45 0 -12 16 -37 35 -56 43 -43 67 -93 60 -124 -5 -17 1
-33 19 -54 16 -19 26 -43 26 -62 0 -22 7 -35 25 -47 17 -11 25 -26 25 -44 0
-15 11 -39 25 -54 19 -20 25 -38 25 -70 0 -29 7 -52 22 -71 14 -19 23 -46 26
-84 3 -38 11 -63 25 -78 13 -15 21 -39 23 -70 2 -27 11 -58 23 -73 15 -21 21
-51 27 -126 5 -81 10 -103 28 -122 17 -19 22 -39 25 -102 2 -48 8 -83 16 -90
9 -7 906 -9 2981 -7 3262 3 3008 -1 3359 62 636 116 1229 388 1745 801 173
139 446 412 584 584 475 595 746 1244 843 2020 17 139 18 545 18 9970 0 9425
-1 9831 -18 9970 -97 773 -371 1431 -843 2020 -138 173 -411 446 -584 584
-141 113 -387 281 -525 358 -461 260 -912 407 -1485 485 -117 16 -736 17
-9920 18 -5387 1 -9817 0 -9845 -2z m2384 -32 c25 -18 47 -20 248 -23 212 -3
222 -4 245 -25 21 -20 35 -22 174 -25 127 -2 155 -6 171 -20 16 -15 47 -19
194 -24 166 -5 175 -7 200 -30 23 -22 34 -24 116 -24 83 0 94 -2 121 -25 27
-23 38 -25 123 -25 79 0 99 -4 129 -22 20 -12 53 -22 75 -23 140 -3 154 -5
174 -26 14 -15 34 -22 71 -24 36 -2 58 -9 74 -24 17 -16 35 -21 72 -21 41 0
55 -5 74 -25 15 -16 34 -25 55 -25 21 0 40 -9 55 -25 13 -14 33 -25 45 -25 12
0 32 -11 44 -24 16 -16 37 -25 70 -28 27 -3 62 -14 79 -26 16 -12 40 -22 51
-22 12 0 45 -22 74 -50 35 -33 61 -50 78 -50 14 0 38 -11 53 -25 15 -14 35
-25 45 -25 10 0 30 -11 45 -25 15 -14 38 -25 52 -25 16 0 43 -17 73 -45 26
-25 56 -45 65 -45 9 0 43 -25 76 -55 39 -36 68 -55 85 -55 16 0 38 -15 66 -45
27 -29 50 -45 65 -45 26 0 166 -124 363 -321 64 -64 127 -120 141 -124 35 -11
47 -22 55 -53 3 -14 15 -35 25 -47 11 -11 52 -56 93 -100 41 -44 77 -91 81
-105 3 -14 37 -59 76 -100 39 -42 70 -84 70 -96 0 -11 11 -31 25 -44 14 -13
25 -35 25 -48 0 -15 18 -46 44 -77 25 -28 48 -64 52 -79 3 -15 17 -38 30 -51
19 -19 24 -35 24 -73 0 -39 5 -53 25 -72 14 -13 25 -34 25 -48 0 -13 9 -35 20
-49 11 -14 20 -35 20 -47 0 -12 11 -37 25 -56 16 -22 25 -47 25 -71 0 -24 9
-52 25 -75 22 -33 25 -47 25 -127 0 -83 2 -93 25 -117 20 -21 25 -37 27 -95 2
-56 7 -76 25 -98 22 -28 23 -34 23 -248 l0 -220 32 -40 c28 -35 36 -39 78 -39
42 0 50 4 83 41 32 35 37 47 37 89 0 30 6 52 15 60 16 13 21 39 30 153 5 62
12 83 31 106 23 27 24 36 24 167 0 122 3 143 20 169 18 28 20 47 20 252 0 188
2 224 16 237 31 32 49 13 59 -64 4 -30 17 -66 28 -82 12 -16 21 -44 22 -72 1
-33 7 -52 23 -66 13 -12 22 -33 22 -49 0 -16 11 -40 25 -55 19 -21 25 -38 25
-75 0 -37 6 -54 25 -75 18 -19 25 -38 25 -67 0 -30 6 -46 25 -63 14 -13 28
-38 31 -57 4 -19 15 -42 25 -52 11 -10 19 -31 19 -46 0 -20 15 -44 50 -82 27
-30 50 -62 50 -73 0 -10 11 -31 25 -48 14 -16 25 -40 25 -53 0 -13 6 -28 13
-32 31 -19 137 -144 137 -162 0 -11 28 -48 63 -83 123 -123 187 -198 187 -218
0 -13 29 -51 70 -93 39 -40 73 -83 77 -97 3 -14 23 -46 44 -71 21 -25 41 -58
45 -75 4 -16 18 -39 31 -51 15 -14 23 -33 23 -54 0 -21 8 -40 25 -55 19 -18
25 -33 25 -67 0 -33 6 -51 25 -71 19 -21 25 -38 25 -75 0 -33 6 -56 20 -74 19
-24 20 -40 20 -469 0 -425 -1 -444 -20 -476 -11 -18 -20 -48 -20 -68 0 -36
-14 -71 -35 -89 -8 -6 -15 -57 -19 -140 -6 -111 -9 -132 -27 -151 -17 -18 -21
-39 -25 -119 -4 -90 -7 -99 -36 -136 -37 -46 -50 -48 -80 -14 -13 15 -32 25
-48 25 -15 0 -35 9 -45 20 -10 11 -30 20 -44 20 -18 0 -40 14 -69 44 -41 42
-42 45 -42 110 0 76 12 106 64 155 20 20 36 45 36 57 0 13 11 35 25 50 22 23
25 36 25 95 0 57 4 72 25 97 19 23 25 41 25 78 0 38 5 54 26 75 l26 27 1 335
2 336 -27 28 c-22 23 -28 39 -28 75 0 34 -6 51 -25 72 -20 22 -25 38 -25 79 0
42 -5 56 -25 76 -19 17 -25 33 -25 66 0 31 -6 49 -25 69 -14 15 -25 38 -25 51
0 13 -11 36 -25 51 -14 15 -25 35 -25 45 0 19 -77 120 -117 154 -13 11 -27 32
-31 46 -8 31 -102 139 -225 258 -101 98 -116 104 -245 95 l-83 -6 -54 -62
c-30 -33 -55 -69 -55 -79 0 -24 -79 -107 -102 -107 -9 0 -55 -34 -103 -75 -47
-41 -94 -75 -105 -75 -10 0 -42 -22 -70 -50 -28 -27 -60 -50 -70 -50 -11 0
-36 -11 -56 -25 -44 -30 -68 -31 -94 -5 -16 16 -20 33 -20 93 0 61 -3 77 -20
92 -18 16 -20 31 -20 141 0 119 -1 123 -27 155 -25 29 -28 41 -29 106 0 60 -4
77 -22 96 -19 20 -23 39 -28 142 -5 94 -10 124 -24 140 -10 11 -21 36 -25 55
-4 19 -17 45 -29 58 -16 18 -21 35 -19 70 1 38 -3 52 -24 74 -20 21 -27 39
-29 79 -2 38 -7 55 -23 66 -13 9 -21 25 -21 44 0 19 -9 38 -25 53 -14 13 -25
34 -25 49 0 14 -6 32 -13 39 -24 24 -37 56 -37 90 0 19 -8 43 -18 54 -41 45
-82 109 -82 129 0 12 -11 31 -25 43 -14 12 -25 32 -25 43 0 13 -22 45 -50 75
-33 35 -50 61 -50 78 0 15 -8 31 -20 38 -11 7 -25 31 -31 53 -8 28 -32 62 -80
111 -38 40 -69 80 -69 89 0 22 -42 68 -259 289 -201 204 -282 278 -323 292
-17 6 -38 20 -47 32 -26 34 -142 122 -161 122 -9 0 -27 11 -40 25 -13 14 -34
25 -46 25 -12 0 -36 11 -52 25 -17 14 -39 25 -51 25 -11 0 -41 20 -66 44 -26
24 -60 47 -78 50 -17 3 -40 15 -52 25 -11 10 -41 21 -68 24 -30 3 -57 13 -71
26 -17 16 -39 22 -95 26 -70 4 -74 3 -112 -27 l-39 -32 6 -75 c5 -59 12 -82
30 -104 17 -20 24 -41 24 -71 0 -30 6 -48 20 -61 11 -10 23 -34 26 -54 4 -20
16 -46 27 -58 16 -18 21 -40 24 -94 3 -59 8 -77 28 -101 14 -16 25 -41 25 -56
0 -14 9 -35 19 -46 16 -18 20 -44 26 -170 6 -120 11 -155 25 -175 15 -22 19
-55 23 -220 5 -176 7 -197 26 -222 19 -25 21 -42 21 -152 0 -119 1 -124 25
-147 23 -22 25 -30 25 -126 0 -80 -3 -104 -16 -115 -24 -20 -48 1 -52 44 -2
24 -10 41 -23 47 -13 7 -19 21 -19 45 0 24 -7 39 -25 53 -20 16 -26 30 -28 77
-3 40 -9 62 -21 70 -22 16 -36 67 -36 128 0 35 -5 52 -20 64 -12 11 -20 30
-20 48 0 21 -9 40 -25 55 -14 13 -25 34 -25 48 0 13 -11 37 -25 54 -18 21 -25
41 -25 72 0 32 -6 48 -24 65 -13 12 -27 36 -30 53 -3 16 -23 51 -44 77 -22 25
-44 61 -50 80 -7 19 -21 40 -31 47 -10 8 -22 25 -25 40 -7 26 -29 62 -73 117
-13 16 -23 34 -23 41 0 16 -95 117 -355 376 -273 272 -300 297 -327 306 -22 7
-72 47 -181 146 -29 26 -60 48 -69 48 -9 0 -40 22 -70 50 -46 43 -59 50 -95
50 -33 0 -50 7 -85 36 -23 20 -47 42 -51 50 -4 8 -20 14 -36 14 -16 0 -37 10
-51 25 -13 14 -33 25 -46 25 -12 0 -46 20 -75 44 -30 24 -67 46 -83 50 -16 4
-43 18 -59 32 -16 13 -38 24 -49 24 -11 0 -31 11 -44 25 -14 16 -34 25 -52 25
-16 0 -37 9 -47 20 -10 11 -29 20 -42 20 -13 0 -34 11 -46 23 -16 17 -38 26
-76 30 -34 4 -62 14 -76 27 -13 12 -41 22 -76 26 -34 3 -62 13 -76 26 -18 17
-39 21 -140 24 -94 4 -123 8 -144 23 -20 15 -48 20 -126 23 -89 3 -104 6 -125
26 -20 18 -36 22 -87 22 -63 0 -97 11 -117 38 -8 11 -42 16 -135 19 -97 4
-131 9 -154 23 -26 16 -54 19 -197 20 -92 0 -175 3 -183 6 -8 4 -15 14 -15 23
0 45 -21 44 843 38 795 -6 818 -7 846 -26z m292 -6061 c21 -15 49 -19 150 -22
113 -3 126 -5 147 -25 15 -16 34 -23 63 -23 41 0 72 -12 97 -37 7 -7 26 -13
41 -13 17 0 36 -10 49 -25 18 -20 31 -25 72 -25 41 0 54 -5 72 -25 12 -14 31
-25 43 -25 12 0 36 -11 55 -25 19 -14 46 -25 60 -25 15 0 35 -9 45 -20 10 -11
28 -20 40 -20 13 0 45 -21 76 -50 30 -27 64 -50 76 -50 12 0 35 -11 51 -25 17
-14 37 -25 47 -25 9 0 42 -22 74 -50 32 -27 66 -50 77 -50 10 0 52 -32 93 -71
40 -39 89 -76 107 -82 21 -7 100 -76 206 -180 95 -92 179 -173 186 -180 7 -6
64 -65 127 -131 86 -88 118 -128 125 -157 6 -22 14 -39 18 -39 7 0 27 -19 147
-143 52 -54 75 -85 75 -102 0 -44 -36 -30 -110 45 -38 38 -82 72 -97 76 -15 4
-57 34 -93 67 -36 33 -81 75 -100 93 -20 18 -47 35 -60 39 -14 3 -49 28 -78
55 -30 29 -62 50 -75 50 -13 0 -44 21 -75 50 -30 28 -60 50 -69 50 -8 0 -38
20 -66 45 -29 25 -66 48 -84 51 -19 4 -37 11 -41 18 -21 32 -93 76 -126 76
-27 0 -48 11 -94 50 -36 30 -70 50 -84 50 -14 0 -35 11 -48 25 -15 16 -34 25
-55 25 -19 0 -39 8 -49 19 -10 11 -30 22 -44 26 -15 3 -38 17 -52 30 -17 16
-41 24 -78 27 -35 4 -60 12 -75 27 -13 11 -34 21 -46 21 -13 0 -32 11 -43 25
-16 20 -28 25 -67 25 -34 0 -56 6 -75 21 -20 16 -44 22 -97 24 -56 3 -79 9
-108 29 -31 22 -48 26 -104 26 -53 0 -70 4 -85 20 -16 17 -36 21 -142 25 -99
5 -130 10 -156 25 -29 19 -51 20 -293 20 -243 0 -264 -1 -289 -19 -22 -16 -49
-21 -150 -24 -110 -4 -125 -7 -143 -26 -15 -16 -32 -21 -73 -21 -42 0 -57 -5
-75 -24 -18 -19 -36 -25 -101 -30 -59 -6 -82 -12 -96 -27 -9 -10 -27 -19 -40
-19 -21 0 -61 -29 -116 -82 -10 -10 -28 -18 -41 -18 -13 0 -34 -11 -47 -25
-13 -14 -34 -25 -47 -25 -26 0 -96 -62 -293 -260 -119 -118 -200 -214 -200
-235 0 -8 -22 -40 -50 -70 -27 -30 -50 -65 -50 -76 0 -12 -11 -34 -25 -51 -14
-16 -25 -40 -25 -53 0 -13 -10 -29 -25 -39 -17 -11 -25 -26 -25 -45 0 -16 -10
-41 -22 -56 -16 -20 -23 -47 -27 -101 -5 -56 -12 -78 -29 -97 -18 -19 -22 -35
-22 -91 0 -58 -4 -72 -25 -98 l-26 -30 1 -508 1 -508 25 -33 c20 -27 24 -44
24 -102 0 -59 4 -73 25 -99 22 -27 25 -38 25 -117 0 -77 3 -91 25 -121 19 -26
25 -46 25 -86 0 -44 4 -54 25 -68 21 -14 25 -24 25 -67 0 -40 6 -58 25 -81 18
-21 25 -41 25 -72 0 -29 8 -52 25 -76 17 -23 25 -47 25 -73 0 -27 8 -48 25
-69 14 -16 25 -40 25 -52 0 -13 11 -35 25 -50 19 -20 25 -38 25 -72 0 -39 5
-50 40 -87 45 -46 96 -140 106 -193 3 -19 15 -39 25 -45 11 -5 19 -20 19 -34
0 -14 13 -39 30 -57 17 -17 30 -42 30 -56 0 -14 10 -32 25 -44 16 -12 25 -30
25 -47 0 -18 13 -39 40 -66 24 -24 45 -55 51 -79 7 -24 29 -59 55 -86 24 -25
44 -53 44 -62 0 -9 23 -45 50 -79 27 -34 50 -72 50 -84 0 -12 21 -41 49 -69
27 -27 51 -60 54 -75 3 -14 26 -47 51 -74 25 -26 46 -54 46 -62 0 -18 80 -116
177 -216 49 -52 73 -84 73 -101 0 -47 -43 -63 -75 -28 -10 11 -29 20 -41 20
-15 0 -52 25 -101 70 -42 39 -88 73 -102 76 -14 4 -60 39 -101 79 -41 40 -87
76 -103 79 -54 13 -747 710 -747 752 0 9 -9 26 -20 38 -83 90 -111 125 -119
151 -4 17 -29 51 -55 76 -30 30 -46 55 -46 71 0 13 -11 35 -25 48 -14 13 -25
34 -25 46 0 12 -8 30 -18 40 -41 42 -72 88 -72 110 0 12 -11 36 -25 52 -18 21
-25 42 -25 70 0 29 -7 49 -25 70 -14 17 -25 39 -25 50 0 12 -11 33 -25 48 -14
15 -25 38 -25 52 0 14 -11 38 -25 52 -22 23 -25 36 -26 100 -1 63 -5 79 -25
103 -18 21 -24 41 -24 74 0 34 -6 53 -25 75 -21 25 -25 40 -25 99 0 54 -4 73
-18 87 -17 17 -20 46 -26 294 -4 151 -4 368 0 482 6 180 9 209 26 228 14 16
18 37 18 89 0 57 4 72 25 97 19 23 25 41 25 79 0 40 5 56 26 78 17 18 24 36
21 51 -8 43 10 131 32 153 12 12 21 30 21 42 0 12 11 34 25 51 14 16 25 40 25
52 0 12 11 33 25 46 15 14 25 35 25 50 0 15 9 35 20 45 11 10 20 28 20 40 0
11 11 36 25 55 14 19 25 42 25 53 0 10 20 42 45 70 25 28 50 66 56 84 6 18 14
33 19 33 9 0 108 131 125 165 17 34 207 229 417 428 32 30 70 58 85 61 14 4
61 38 103 77 42 38 84 69 92 69 8 0 29 14 46 30 21 20 42 30 62 30 19 0 33 7
40 20 7 14 21 20 44 20 22 0 40 8 56 25 14 14 35 25 50 25 15 0 36 11 50 25
14 14 35 25 50 25 16 0 35 10 48 25 17 20 31 25 68 25 35 0 54 6 76 25 22 19
41 25 77 25 37 0 54 6 75 25 24 22 36 25 105 25 65 0 81 3 96 20 15 17 34 20
149 23 72 2 241 2 376 0 218 -4 248 -7 271 -23z m-385 -791 c18 -17 36 -19
141 -19 115 0 123 -1 151 -25 19 -16 41 -25 59 -23 15 1 58 1 95 0 56 -2 71
-6 94 -27 21 -19 38 -25 74 -25 37 0 51 -5 70 -25 18 -19 34 -25 65 -25 28 0
52 -8 75 -25 19 -14 46 -25 60 -25 15 0 35 -9 45 -20 11 -12 31 -20 50 -20 18
0 41 -9 54 -22 13 -11 44 -25 69 -30 25 -4 53 -15 62 -23 9 -8 34 -21 56 -29
52 -18 107 -68 102 -92 -3 -18 -24 -19 -499 -21 l-496 -2 -38 -25 c-31 -21
-49 -26 -103 -26 -54 0 -70 -4 -89 -22 -20 -18 -39 -23 -101 -27 -63 -3 -82
-8 -105 -27 -16 -13 -39 -24 -51 -24 -12 0 -33 -11 -46 -25 -14 -15 -35 -25
-50 -25 -15 0 -35 -9 -45 -20 -10 -11 -28 -20 -41 -20 -12 0 -36 -11 -52 -25
-17 -14 -39 -25 -50 -25 -10 0 -36 -13 -57 -30 -21 -16 -45 -30 -54 -30 -9 0
-50 -31 -91 -70 -40 -38 -86 -72 -100 -75 -35 -8 -328 -298 -337 -334 -3 -14
-37 -59 -75 -100 -37 -40 -68 -81 -68 -91 0 -10 -22 -45 -49 -77 -26 -32 -54
-75 -61 -96 -6 -21 -18 -41 -25 -43 -7 -3 -16 -20 -19 -38 -4 -18 -15 -41 -25
-50 -10 -9 -21 -35 -25 -56 -4 -24 -14 -43 -25 -50 -11 -5 -22 -24 -26 -40 -4
-17 -18 -42 -31 -55 -15 -15 -24 -36 -24 -56 0 -19 -7 -37 -17 -44 -13 -10
-19 -34 -24 -95 -4 -64 -10 -86 -24 -96 -20 -15 -55 -2 -55 20 0 7 -9 21 -20
31 -19 18 -20 31 -20 467 0 436 1 449 20 465 16 14 20 30 20 86 0 68 11 103
37 122 7 6 16 28 20 50 3 22 14 45 23 52 12 8 19 31 22 68 3 38 11 62 26 78
12 13 22 35 22 48 0 14 11 36 25 49 14 13 25 32 25 42 0 10 31 55 69 100 38
45 72 93 76 107 6 28 181 201 203 201 7 0 51 32 97 70 55 46 92 70 109 70 16
0 32 9 42 25 10 16 26 25 41 25 14 0 38 11 55 25 28 24 71 32 146 25 13 -1 35
9 49 22 22 21 36 23 153 28 100 4 132 9 146 22 24 21 48 24 159 20 71 -3 94
-8 111 -23z m7090 -94 c14 -16 34 -25 52 -25 20 0 32 -7 41 -24 7 -13 24 -29
37 -35 13 -6 24 -15 24 -20 0 -5 17 -12 37 -16 20 -4 48 -15 61 -26 14 -10 33
-19 44 -19 10 0 30 -11 44 -25 15 -15 36 -25 53 -25 16 0 37 -10 51 -25 13
-14 33 -25 46 -25 12 0 32 -11 45 -25 14 -14 35 -25 51 -25 14 0 40 -11 56
-25 17 -14 38 -25 49 -25 10 0 41 -20 68 -45 28 -25 66 -50 85 -55 19 -5 41
-19 48 -30 7 -11 23 -20 37 -20 14 0 48 -20 84 -50 33 -27 69 -50 79 -50 10 0
27 -9 37 -20 10 -11 29 -20 42 -20 15 0 44 -18 76 -49 29 -26 68 -53 87 -60
20 -6 43 -20 53 -31 9 -11 28 -20 42 -20 14 0 33 -8 43 -17 60 -60 141 -123
159 -123 11 0 31 -12 45 -27 64 -71 131 -123 157 -123 18 0 42 -15 73 -45 26
-25 52 -45 58 -45 12 0 97 -76 237 -211 50 -49 98 -89 106 -89 23 0 100 -68
114 -99 12 -28 80 -105 225 -256 96 -100 118 -125 118 -138 0 -14 48 -84 78
-113 12 -13 22 -32 22 -43 0 -19 21 -47 71 -98 15 -14 23 -38 27 -75 3 -30 13
-63 23 -77 15 -18 19 -41 19 -94 0 -61 3 -74 24 -96 22 -23 25 -36 29 -129 3
-87 7 -105 24 -121 16 -16 21 -37 27 -122 6 -84 11 -108 28 -126 22 -23 18
-57 -7 -67 -9 -3 -15 -18 -15 -36 0 -37 -31 -70 -65 -70 -37 0 -315 279 -315
316 0 25 -15 46 -67 99 -13 12 -23 31 -23 42 0 11 -11 32 -25 47 -14 15 -25
39 -25 55 0 16 -10 37 -25 51 -14 13 -25 33 -25 45 0 12 -11 32 -24 44 -13 13
-27 37 -30 55 -4 19 -15 41 -26 51 -11 10 -20 31 -20 48 0 19 -9 38 -25 53
-14 13 -25 31 -25 42 0 10 -22 43 -50 73 -27 29 -50 63 -50 73 0 19 -52 84
-144 179 -25 27 -46 57 -46 66 0 20 -60 88 -206 235 -50 51 -95 102 -99 115
-11 34 -27 53 -175 200 -92 91 -144 136 -165 140 -28 6 -35 15 -65 80 -4 8
-19 18 -34 22 -15 4 -71 50 -124 102 -53 52 -124 118 -157 147 -33 30 -66 62
-73 72 -7 10 -23 18 -34 18 -13 0 -52 29 -99 75 -46 45 -85 75 -98 75 -17 0
-66 39 -152 122 -9 9 -28 19 -41 23 -12 5 -59 39 -103 76 -46 40 -89 69 -102
69 -13 0 -39 18 -65 46 -24 26 -62 55 -84 64 -23 10 -71 46 -106 79 -46 42
-74 61 -92 61 -16 0 -31 9 -42 25 -12 18 -25 25 -50 25 -36 0 -59 26 -48 54
10 27 82 21 110 -9z m-1450 -1852 c28 -23 60 -43 71 -43 11 0 42 -23 70 -52
127 -135 195 -193 227 -194 17 -1 62 -2 99 -2 59 -2 71 -5 91 -27 21 -22 31
-25 99 -25 67 0 79 -3 103 -25 24 -22 36 -25 104 -25 72 0 79 -2 94 -25 l16
-25 202 0 c178 0 204 -2 221 -17 10 -10 34 -22 52 -28 20 -6 72 -47 129 -102
68 -65 104 -93 121 -93 26 0 55 -33 55 -62 0 -10 54 -73 120 -140 93 -94 120
-128 120 -148 0 -20 18 -45 75 -99 59 -56 75 -78 75 -100 0 -22 20 -48 95
-124 61 -61 95 -104 95 -118 0 -13 29 -51 75 -98 46 -48 75 -86 75 -99 0 -12
22 -45 50 -74 29 -31 50 -62 50 -76 0 -13 20 -43 50 -73 34 -34 50 -59 50 -76
0 -18 17 -44 50 -79 33 -35 50 -61 50 -78 0 -16 9 -32 25 -42 18 -12 25 -25
25 -49 0 -48 -22 -65 -84 -65 -49 0 -55 3 -94 45 -23 25 -42 53 -42 63 0 10
-22 41 -50 70 -31 32 -50 61 -50 76 0 13 -10 34 -22 48 -46 51 -68 83 -68 100
0 9 -13 31 -30 48 -17 17 -30 41 -30 56 0 17 -21 46 -71 97 -43 44 -73 83 -76
101 -4 20 -45 69 -125 150 -75 76 -118 127 -118 141 0 27 -18 45 -45 45 -14 0
-74 52 -172 148 -195 190 -197 192 -223 192 -15 0 -42 19 -72 50 -44 45 -54
51 -100 55 -45 3 -57 10 -97 49 -33 32 -55 46 -74 46 -17 0 -37 10 -51 25 -14
15 -34 25 -50 25 -15 0 -35 10 -48 25 -17 20 -31 25 -69 25 -36 0 -55 6 -77
25 -22 18 -42 25 -74 25 -35 0 -50 6 -68 25 -22 23 -30 25 -120 25 -87 0 -99
2 -131 25 l-34 26 -530 -3 c-530 -3 -530 -3 -566 -25 -68 -43 -183 -23 -152
25 5 10 25 18 44 20 19 2 43 12 55 23 16 15 38 20 100 22 67 3 84 7 102 25 19
19 33 22 95 22 65 0 76 3 97 25 21 22 32 25 92 25 65 0 72 2 114 37 39 33 44
42 44 78 0 33 -6 47 -30 70 -18 17 -30 39 -30 54 0 15 -10 33 -26 46 -42 34
-14 69 46 57 14 -3 48 -25 76 -49z m5027 -1625 c145 -142 208 -198 223 -198 9
0 50 -31 92 -70 43 -38 85 -70 94 -70 10 0 55 -34 100 -75 46 -41 91 -75 102
-75 16 0 48 -22 106 -74 8 -7 27 -16 43 -20 15 -3 36 -15 47 -26 11 -11 32
-22 47 -26 16 -4 48 -26 73 -49 25 -24 60 -46 78 -50 18 -4 44 -18 57 -31 13
-13 33 -24 45 -24 11 0 43 -20 69 -45 35 -32 56 -45 78 -45 19 0 38 -9 53 -25
13 -14 32 -25 43 -25 10 0 32 -11 49 -25 16 -14 38 -25 48 -25 10 0 32 -11 48
-25 17 -14 39 -25 50 -25 11 0 34 -11 50 -25 17 -14 41 -25 54 -25 14 0 35
-11 48 -25 13 -14 34 -25 47 -25 13 0 33 -11 45 -25 13 -15 32 -25 48 -25 15
0 39 -9 53 -20 14 -11 37 -20 52 -20 14 0 37 -11 50 -24 13 -14 35 -28 47 -32
13 -4 36 -17 51 -30 16 -13 41 -24 56 -24 15 0 36 -9 46 -20 10 -11 28 -20 41
-20 13 0 39 -13 57 -30 19 -16 43 -30 54 -30 11 0 28 -8 37 -19 11 -12 35 -20
70 -23 46 -4 61 -11 108 -51 31 -26 62 -47 71 -47 8 0 29 -11 45 -25 17 -14
41 -25 54 -25 14 0 37 -11 52 -25 15 -14 35 -25 46 -25 10 0 32 -11 48 -25 17
-14 39 -25 50 -25 11 0 34 -11 50 -25 17 -14 39 -25 50 -25 11 0 34 -11 50
-25 17 -14 39 -25 50 -25 11 0 34 -11 50 -25 17 -14 37 -25 46 -25 9 0 41 -22
71 -50 39 -35 64 -50 84 -50 15 0 36 -9 45 -19 10 -11 32 -23 49 -27 21 -4 53
-29 95 -75 49 -53 70 -69 92 -69 26 0 82 -37 123 -81 10 -10 24 -19 32 -19 18
0 138 -99 187 -155 27 -31 48 -45 64 -45 19 0 64 -38 176 -147 178 -174 214
-210 289 -289 31 -32 73 -75 95 -94 21 -20 71 -71 109 -114 39 -43 94 -101
123 -129 30 -29 52 -59 52 -71 0 -12 30 -54 70 -98 39 -42 70 -83 70 -91 0 -8
23 -42 50 -75 28 -33 50 -67 50 -75 0 -9 10 -27 23 -41 62 -68 77 -90 77 -111
0 -12 8 -33 19 -46 33 -43 51 -87 51 -127 0 -36 19 -188 65 -535 13 -92 14
-121 4 -133 -8 -10 -35 -14 -99 -14 l-87 0 -62 67 c-33 37 -61 75 -61 85 0 10
-11 28 -25 40 -15 13 -25 32 -25 48 0 14 -11 41 -25 60 -18 25 -25 47 -25 80
0 37 -5 52 -25 70 -14 13 -25 33 -25 45 0 12 -20 44 -45 71 -24 27 -47 63 -51
79 -4 17 -17 43 -30 58 -13 16 -24 36 -24 46 0 10 -9 26 -19 35 -11 10 -23 32
-27 50 -6 26 -27 60 -63 101 -5 6 -37 37 -70 69 -41 40 -61 68 -61 84 0 17
-35 60 -122 149 -68 69 -138 139 -157 157 -18 17 -90 86 -158 153 -75 74 -135
124 -152 128 -15 3 -70 47 -126 100 -55 52 -108 95 -117 95 -9 0 -44 23 -77
50 -33 28 -67 50 -76 50 -9 0 -40 23 -69 50 -29 28 -62 50 -74 50 -12 0 -46
23 -76 51 -88 82 -116 99 -159 99 -35 0 -47 8 -111 70 -43 41 -81 70 -93 70
-12 0 -48 22 -80 50 -32 27 -66 50 -76 50 -10 0 -28 11 -41 25 -15 16 -34 25
-55 25 -21 0 -38 8 -53 25 -12 14 -32 25 -44 25 -12 0 -31 10 -41 23 -33 41
-91 77 -123 77 -45 0 -97 27 -128 67 -19 23 -35 33 -55 33 -17 0 -36 10 -49
25 -12 14 -32 25 -46 25 -14 0 -45 18 -75 45 -29 25 -63 48 -77 52 -14 3 -34
13 -45 23 -11 10 -35 20 -53 23 -19 4 -51 25 -80 52 -26 25 -59 49 -74 52 -15
3 -35 14 -44 24 -9 11 -30 19 -45 19 -15 0 -41 11 -57 25 -17 14 -37 25 -45
25 -9 0 -42 22 -74 50 -32 27 -68 50 -79 50 -12 0 -44 22 -73 50 -38 37 -59
50 -81 50 -19 0 -33 7 -40 20 -6 10 -27 24 -48 30 -20 5 -59 30 -85 55 -26 25
-56 45 -67 45 -11 0 -32 12 -48 28 -48 44 -69 60 -93 67 -13 4 -50 30 -82 56
-32 27 -67 49 -77 49 -11 0 -40 20 -66 46 -26 25 -60 48 -76 51 -16 3 -36 15
-46 27 -9 11 -49 48 -87 80 -39 33 -86 77 -105 98 -21 23 -45 38 -58 38 -31 0
-386 354 -396 394 -4 15 -16 40 -27 55 -14 19 -21 45 -22 84 -2 51 1 59 32 91
19 20 41 36 48 36 7 0 37 -24 66 -52z m-4271 -265 c14 -13 34 -23 47 -23 12 0
37 -11 55 -25 18 -14 44 -25 58 -25 13 0 35 -11 48 -25 13 -14 32 -25 43 -25
11 0 48 -26 81 -57 113 -106 157 -143 173 -143 27 0 332 -314 339 -348 4 -18
25 -46 55 -73 27 -24 49 -52 49 -62 0 -23 32 -67 84 -115 75 -69 105 -107 112
-137 4 -16 37 -63 75 -106 47 -52 69 -84 69 -101 0 -17 9 -32 26 -42 34 -23
30 -60 -7 -64 -19 -2 -31 4 -42 22 l-17 25 -434 1 -434 1 -28 -26 c-28 -26
-37 -28 -92 -25 -22 1 -42 -7 -63 -24 -22 -18 -37 -24 -54 -20 -13 3 -90 0
-172 -6 -117 -10 -153 -16 -172 -31 -19 -16 -41 -19 -118 -19 -79 0 -98 -3
-122 -21 -23 -17 -48 -21 -152 -26 -122 -6 -125 -5 -154 19 -17 14 -44 28 -62
31 -17 3 -51 24 -75 46 -23 23 -51 41 -60 41 -10 0 -41 23 -70 51 -29 27 -66
53 -81 56 -18 4 -71 47 -145 119 -69 67 -129 118 -147 123 -16 4 -52 30 -80
57 -110 108 -196 183 -217 190 -22 6 -85 55 -153 116 -16 16 -35 28 -41 28 -6
0 -28 14 -49 30 -30 24 -48 30 -84 30 -43 0 -51 5 -108 60 -35 33 -63 64 -63
68 0 21 75 84 106 89 18 3 41 14 50 24 9 11 27 19 40 19 12 0 36 11 52 25 17
14 40 25 52 25 12 0 35 11 52 25 22 19 41 25 77 25 38 0 52 5 71 25 21 22 31
25 98 25 64 0 78 3 104 25 25 21 40 25 97 25 52 0 73 4 89 18 19 17 48 20 244
25 195 6 226 9 248 25 21 16 53 20 200 26 143 6 178 11 194 24 23 21 105 30
263 28 111 -1 123 -3 145 -23z m-6114 -1965 c7 -7 12 -27 12 -45 0 -35 -21
-53 -60 -53 -14 0 -39 -19 -66 -49 -26 -29 -55 -51 -72 -54 -39 -8 -88 -56
-97 -95 -3 -18 -15 -37 -25 -42 -34 -18 -130 -140 -130 -165 0 -13 -8 -30 -19
-37 -13 -9 -20 -30 -23 -72 -4 -44 -10 -62 -26 -75 -12 -9 -25 -32 -28 -51 -4
-19 -15 -44 -25 -55 -16 -18 -19 -47 -25 -215 -6 -167 -10 -199 -25 -222 -14
-19 -19 -44 -19 -98 0 -63 -3 -74 -25 -94 -20 -19 -25 -33 -25 -73 0 -34 -6
-58 -19 -74 -12 -15 -21 -50 -25 -96 -7 -72 -7 -72 27 -109 l33 -37 170 2 169
1 46 49 c27 29 58 51 76 55 17 4 39 16 49 27 9 10 30 19 47 19 16 0 42 11 59
25 16 14 37 25 47 25 10 0 39 23 66 51 45 48 49 50 94 47 39 -3 46 -6 49 -26
3 -16 -8 -32 -40 -60 -23 -20 -130 -122 -236 -227 -141 -140 -199 -191 -220
-193 -31 -4 -52 -26 -52 -58 0 -14 -26 -47 -75 -93 l-76 -72 3 -57 3 -57 97
-3 c95 -3 97 -2 131 28 19 16 44 30 55 30 12 0 31 11 44 24 21 23 49 31 91 28
33 -3 20 -49 -28 -93 -29 -27 -45 -50 -45 -65 0 -13 -20 -50 -45 -83 -25 -32
-45 -66 -45 -76 0 -9 -11 -27 -25 -40 -13 -14 -27 -40 -30 -59 -4 -19 -17 -43
-30 -54 -15 -13 -22 -28 -19 -40 4 -12 -4 -27 -20 -43 -14 -13 -26 -32 -26
-42 0 -22 -26 -74 -39 -79 -5 -1 -13 -39 -17 -83 -5 -63 -12 -86 -31 -109 -18
-21 -22 -36 -18 -57 6 -27 -8 -67 -28 -80 -11 -8 -26 -80 -27 -133 0 -25 -8
-48 -23 -66 -22 -26 -24 -37 -26 -175 -2 -130 -5 -151 -22 -173 -16 -20 -19
-41 -19 -118 0 -84 -2 -95 -25 -122 -20 -25 -25 -41 -25 -89 0 -41 -6 -70 -22
-98 -16 -31 -23 -64 -27 -142 -5 -73 -11 -106 -23 -120 -8 -10 -19 -32 -23
-50 -3 -17 -17 -39 -31 -47 -15 -11 -24 -26 -24 -43 0 -15 -11 -38 -24 -52
-21 -22 -25 -40 -31 -117 -9 -117 -4 -124 96 -118 71 4 73 5 125 54 32 30 62
50 76 50 13 0 29 9 35 19 7 11 26 22 44 26 18 4 53 27 78 51 25 25 57 47 71
51 36 8 50 22 50 48 0 27 15 41 53 50 15 4 60 38 99 76 97 95 133 89 119 -17
-6 -41 -16 -62 -54 -106 -46 -53 -47 -57 -47 -120 0 -52 -4 -71 -22 -93 -15
-19 -22 -43 -23 -74 -3 -142 -4 -151 -30 -175 -20 -19 -25 -33 -25 -74 0 -40
-5 -57 -25 -78 l-25 -27 0 -360 0 -359 25 -30 c18 -22 25 -41 25 -73 0 -32 6
-50 22 -64 14 -14 24 -39 29 -76 5 -39 16 -66 39 -95 31 -40 32 -40 100 -40
l68 0 42 53 c23 28 48 56 56 60 8 4 14 21 14 37 0 16 11 41 23 57 13 15 27 39
30 53 3 14 27 45 51 70 25 25 46 55 46 66 0 26 66 111 115 148 22 17 35 35 35
50 0 33 214 246 247 246 13 0 33 11 45 25 24 28 63 33 72 9 3 -9 6 -93 6 -188
0 -160 1 -174 20 -191 18 -17 20 -31 20 -165 0 -140 1 -147 25 -180 18 -24 25
-47 25 -77 0 -35 5 -49 27 -67 25 -22 27 -30 31 -122 3 -76 8 -104 22 -119 10
-11 21 -37 24 -58 4 -21 14 -41 22 -44 8 -3 19 -25 25 -49 7 -25 19 -50 29
-57 9 -7 20 -25 24 -41 4 -16 18 -43 32 -59 13 -16 24 -38 24 -50 1 -12 20
-42 45 -67 24 -24 47 -56 50 -71 6 -27 50 -84 113 -146 17 -17 32 -39 32 -48
0 -9 26 -41 57 -72 32 -30 68 -69 80 -87 13 -17 66 -74 118 -128 52 -53 95
-104 95 -113 0 -9 11 -30 25 -47 14 -16 25 -40 25 -52 0 -14 29 -53 79 -107
43 -46 90 -97 104 -114 22 -26 32 -30 75 -30 28 0 54 4 59 8 4 5 8 82 8 170
l0 162 25 3 c21 2 40 -12 100 -79 89 -97 90 -98 90 -126 0 -14 29 -49 88 -103
48 -44 103 -100 122 -125 19 -24 43 -47 52 -50 10 -3 49 -37 87 -76 39 -38 78
-69 88 -69 10 0 58 -40 108 -89 176 -173 218 -211 237 -211 11 0 37 -15 58
-32 47 -39 53 -74 15 -84 -38 -10 -75 11 -149 82 -36 35 -75 64 -85 64 -10 0
-45 25 -77 55 -64 59 -163 155 -179 174 -5 6 -48 47 -93 91 -79 75 -86 80
-128 80 -64 0 -68 -13 -60 -199 6 -144 9 -156 31 -183 22 -25 25 -40 25 -102
0 -61 -4 -77 -25 -106 -19 -25 -24 -45 -24 -81 2 -53 -5 -69 -28 -69 -21 0
-88 69 -98 100 -4 14 -25 47 -47 73 -22 26 -44 62 -49 80 -5 20 -44 69 -104
129 -52 54 -95 106 -95 116 0 11 -61 82 -140 163 -77 79 -145 149 -150 154
-36 38 -494 498 -578 579 -72 71 -105 111 -112 136 -10 35 -44 76 -113 138
-26 23 -37 41 -37 60 0 17 -10 38 -25 52 -14 13 -25 32 -25 42 0 20 -67 118
-81 118 -5 0 -9 25 -9 55 0 46 -4 59 -25 77 -14 12 -25 32 -25 47 0 13 -10 35
-22 49 -25 25 -35 108 -37 290 -1 68 -5 88 -22 112 -12 16 -19 35 -16 43 3 8
-1 24 -9 36 -12 17 -25 21 -67 21 -70 0 -101 -17 -105 -56 -2 -18 -14 -42 -28
-55 -19 -18 -24 -33 -24 -69 0 -36 -6 -53 -25 -74 l-25 -27 0 -247 c0 -136 -4
-253 -8 -259 -4 -7 -22 -16 -40 -19 -30 -6 -37 -1 -119 87 -48 51 -110 114
-138 139 -87 80 -154 153 -159 176 -6 24 -64 92 -148 175 -27 25 -48 52 -48
60 0 13 -37 73 -77 122 -13 16 -23 37 -23 46 0 10 -9 30 -20 44 -11 14 -20 35
-20 46 0 12 -9 30 -20 41 -28 28 -41 64 -34 98 4 20 -1 34 -20 55 -22 24 -26
38 -28 95 -2 65 -4 105 -7 128 0 6 -10 21 -21 34 -17 19 -20 37 -20 106 0 59
4 85 14 91 24 15 36 51 36 112 0 49 4 65 25 89 19 23 25 41 25 78 0 35 6 54
22 71 26 28 44 143 27 175 -10 19 -17 20 -87 13 -63 -6 -81 -12 -99 -31 -12
-13 -31 -24 -42 -24 -10 0 -44 -20 -74 -45 -31 -25 -65 -45 -76 -45 -11 0 -35
-13 -53 -30 -26 -24 -41 -30 -78 -30 -37 0 -52 -5 -70 -25 -14 -14 -35 -25
-50 -25 -15 0 -36 -11 -50 -25 -19 -21 -33 -25 -77 -25 -48 0 -53 2 -53 22 0
24 26 58 45 58 7 0 15 18 19 40 4 25 14 43 26 50 12 6 20 21 20 35 0 14 8 33
18 43 56 57 82 101 82 140 0 29 7 49 25 70 15 18 25 42 25 60 0 20 8 36 22 46
18 13 24 30 29 88 4 40 8 97 8 127 1 40 6 60 21 76 18 19 20 41 26 248 6 202
9 229 26 243 16 15 18 35 18 189 0 162 1 174 22 200 17 22 22 45 25 104 3 64
8 80 28 102 20 20 25 36 25 75 0 41 5 55 25 74 14 13 25 35 25 49 0 14 11 36
24 48 20 19 24 35 29 120 8 123 6 126 -90 117 l-71 -7 -104 -105 c-57 -57
-127 -127 -155 -155 -39 -36 -53 -57 -53 -77 0 -52 -58 -69 -70 -20 -10 41 5
109 29 134 15 16 21 31 17 44 -4 12 2 28 19 46 14 15 25 36 25 48 0 11 14 36
30 55 17 18 30 44 30 56 0 14 18 41 44 67 25 25 47 56 50 70 2 14 48 70 100
125 64 67 96 108 96 123 0 17 55 77 196 216 190 187 196 196 201 240 8 70 -2
76 -118 76 -93 0 -99 -1 -114 -24 -10 -15 -29 -26 -53 -30 -22 -3 -42 -14 -50
-26 -9 -16 -23 -20 -61 -20 -38 0 -56 -6 -79 -25 -17 -14 -38 -25 -48 -25 -10
0 -34 -11 -53 -24 -22 -14 -58 -27 -93 -31 -51 -6 -58 -4 -68 14 -12 24 0 55
25 65 8 3 15 17 15 32 0 20 19 45 75 101 50 49 75 81 75 96 0 13 11 38 25 57
14 19 25 43 25 54 0 11 9 30 21 42 16 17 22 39 26 101 4 64 9 82 28 103 22 23
24 35 28 168 4 129 6 145 26 166 19 20 22 37 26 150 4 108 7 131 25 153 18 23
20 40 20 192 0 163 1 168 25 201 14 19 25 47 25 62 0 16 7 31 15 34 8 3 19 23
25 45 15 53 203 244 252 254 18 4 44 16 57 26 20 16 42 19 155 19 89 0 136 -4
144 -12z m13653 -2667 c18 -13 49 -20 124 -25 76 -5 106 -11 127 -26 16 -12
43 -20 67 -20 28 0 48 -8 71 -26 22 -19 45 -27 82 -30 34 -2 59 -10 73 -24 12
-11 34 -20 49 -20 16 0 36 -10 50 -25 13 -14 34 -25 48 -25 13 0 35 -11 48
-25 14 -15 35 -25 50 -25 15 0 39 -11 54 -25 15 -14 37 -25 49 -25 12 0 45
-22 75 -50 32 -30 61 -50 75 -50 13 0 34 -11 47 -25 14 -14 35 -25 50 -25 15
0 36 -11 50 -25 21 -22 32 -25 92 -25 54 0 72 4 88 20 11 11 34 26 52 34 18 8
64 44 102 80 38 36 78 66 88 66 11 0 43 20 72 45 29 25 67 48 84 51 20 4 48
25 76 55 25 27 49 49 54 49 4 0 25 -18 46 -40 l37 -40 -7 -82 c-5 -57 -13 -90
-25 -107 -16 -20 -19 -42 -19 -145 l-1 -121 -58 -62 c-39 -42 -69 -65 -89 -69
-17 -3 -51 -26 -76 -49 -24 -24 -55 -46 -68 -50 -13 -4 -32 -15 -43 -25 -11
-10 -35 -21 -52 -23 -31 -5 -94 -47 -123 -82 -7 -8 -21 -15 -32 -15 -10 0 -46
-22 -79 -50 -47 -39 -68 -50 -96 -50 -23 0 -45 -9 -65 -25 -17 -14 -42 -25
-58 -25 -24 0 -56 -26 -185 -155 -156 -155 -205 -214 -205 -245 0 -9 -11 -27
-25 -40 -20 -19 -25 -33 -25 -71 0 -37 -6 -54 -25 -75 -19 -21 -25 -38 -25
-72 0 -35 -6 -52 -24 -71 -22 -23 -25 -37 -28 -128 -4 -89 -7 -106 -26 -126
-16 -17 -22 -36 -22 -69 0 -35 -6 -54 -25 -76 -21 -26 -25 -40 -25 -98 0 -51
-5 -77 -19 -98 -12 -19 -22 -57 -27 -104 -5 -61 -11 -78 -30 -95 -19 -16 -24
-31 -24 -68 0 -37 -6 -54 -25 -75 -14 -15 -25 -37 -25 -49 0 -12 -9 -34 -20
-48 -16 -20 -21 -42 -22 -97 -1 -60 -5 -77 -25 -100 -17 -20 -23 -40 -23 -74
0 -55 -31 -96 -56 -75 -11 9 -14 38 -14 122 0 96 3 113 20 132 16 17 21 41 26
148 6 115 9 128 31 148 18 18 23 33 23 71 0 32 7 58 19 76 17 24 20 53 26 247
5 177 9 225 22 245 11 16 18 54 20 114 4 79 2 93 -17 118 -12 16 -23 51 -27
81 -5 48 -10 56 -66 110 -34 31 -70 57 -80 57 -11 0 -64 43 -119 95 -69 66
-106 95 -123 95 -15 0 -42 18 -75 50 -28 27 -63 53 -77 56 -14 4 -55 36 -92
71 l-66 64 54 50 55 51 4 107 c2 58 0 124 -5 145 -7 34 -14 41 -41 48 -19 5
-63 37 -106 78 -53 50 -81 70 -100 70 -15 0 -35 10 -47 24 -12 13 -33 27 -47
31 -14 3 -48 26 -76 51 -47 41 -55 44 -107 44 -31 0 -70 3 -87 6 -25 5 -37 0
-72 -32 l-42 -38 7 -70 c5 -50 13 -76 26 -89 11 -10 19 -31 19 -47 0 -19 9
-38 26 -53 32 -30 29 -61 -7 -65 -19 -2 -28 3 -37 23 -9 18 -19 25 -40 25 -16
0 -41 9 -55 20 -14 11 -37 20 -52 20 -14 0 -36 10 -48 23 -12 13 -35 27 -52
31 -16 4 -35 16 -43 27 -8 11 -25 19 -43 19 -23 0 -46 16 -105 73 -49 47 -87
75 -110 81 -27 6 -36 14 -41 36 -3 16 -16 39 -29 51 -18 17 -24 33 -24 64 0
40 5 46 92 128 68 65 98 87 119 87 16 0 32 8 41 22 13 19 26 23 94 26 62 3 84
8 101 24 14 13 41 23 74 26 32 3 66 14 88 29 24 16 45 23 62 19 17 -3 39 4 65
19 l39 24 421 1 c395 0 423 -1 445 -19z m-6571 -571 c11 -6 22 -26 26 -48 7
-40 18 -52 48 -52 23 0 56 -28 56 -47 0 -13 42 -73 78 -111 6 -7 12 -23 12
-34 0 -11 11 -33 23 -48 31 -36 41 -155 31 -349 -6 -121 -10 -139 -31 -167
-19 -26 -23 -43 -23 -101 0 -61 -3 -72 -25 -93 -15 -14 -25 -35 -25 -50 0 -15
-9 -35 -20 -45 -11 -10 -22 -33 -26 -51 -3 -18 -15 -40 -25 -50 -10 -9 -19
-28 -19 -41 0 -13 -11 -34 -25 -47 -14 -13 -25 -33 -25 -45 0 -24 -16 -58 -37
-79 -7 -7 -13 -24 -13 -37 0 -16 -17 -41 -50 -72 -32 -31 -50 -56 -50 -71 0
-13 -11 -37 -25 -54 -14 -16 -25 -39 -25 -50 0 -11 -11 -33 -25 -50 -14 -16
-25 -37 -25 -47 0 -10 -11 -28 -25 -41 -14 -13 -25 -34 -25 -46 0 -12 -11 -36
-25 -52 -14 -17 -25 -40 -25 -53 0 -15 -19 -43 -50 -74 -33 -32 -50 -58 -50
-75 -1 -35 -71 -113 -93 -104 -23 8 -21 47 3 69 11 10 20 30 20 45 0 18 15 42
50 77 47 48 50 54 50 102 0 39 5 55 20 68 11 10 20 27 20 39 0 12 14 38 30 59
17 21 30 48 30 60 0 12 9 30 20 40 14 12 20 31 20 57 0 42 14 78 36 91 8 4 17
26 20 47 4 22 15 47 25 56 13 12 19 31 19 59 0 32 7 52 30 80 25 31 29 44 24
74 -5 30 -1 42 25 75 25 31 31 48 31 87 0 37 5 51 21 62 16 12 21 29 25 93 4
47 12 89 22 104 13 21 16 62 16 266 1 217 -1 244 -16 261 -13 14 -18 36 -18
75 0 45 -4 59 -24 77 -13 12 -27 36 -30 53 -3 17 -15 37 -26 45 -55 39 9 96
70 63z m6674 -2826 c9 -24 7 -90 -4 -119 -8 -21 -16 -26 -38 -23 -26 3 -27 6
-30 60 -2 32 2 67 8 78 13 24 55 27 64 4z m-149 -343 c9 -28 -5 -51 -30 -51
-28 0 -43 34 -25 55 17 21 48 19 55 -4z m-48 -97 c9 -24 -10 -49 -38 -49 -24
0 -36 23 -25 51 7 19 55 18 63 -2z m-552 -132 c75 -6 95 -11 115 -29 22 -21
33 -23 151 -23 143 0 139 2 139 -78 0 -45 3 -50 75 -122 41 -41 75 -80 75 -86
0 -11 55 -88 83 -116 9 -10 17 -27 17 -39 0 -12 11 -34 25 -51 14 -16 25 -40
25 -52 0 -12 11 -33 25 -46 14 -13 25 -35 25 -49 0 -17 16 -43 45 -74 25 -26
48 -60 51 -75 4 -15 17 -39 31 -53 23 -25 23 -29 21 -184 -3 -138 -5 -159 -20
-169 -25 -16 -51 3 -59 43 -4 18 -16 42 -28 55 -11 12 -21 33 -21 45 0 13 -22
49 -50 83 -27 33 -50 67 -50 75 0 8 -11 28 -25 45 -14 16 -25 38 -25 48 0 27
-41 84 -92 126 -49 42 -58 52 -58 76 0 21 -54 83 -174 199 -83 81 -92 87 -138
91 -31 3 -57 13 -71 27 -22 20 -33 21 -211 21 -186 0 -188 0 -218 -25 -28 -24
-36 -25 -147 -25 -112 0 -119 -1 -141 -25 -16 -17 -34 -25 -55 -25 -20 0 -42
-9 -59 -25 -20 -18 -38 -25 -67 -25 -25 0 -52 -8 -69 -20 -19 -14 -52 -22
-104 -26 -61 -6 -79 -11 -97 -30 -13 -13 -33 -24 -47 -24 -13 0 -37 -11 -54
-25 -21 -18 -41 -25 -71 -25 -28 0 -48 -7 -63 -21 -15 -14 -42 -23 -82 -28
-37 -4 -69 -15 -87 -29 -15 -12 -35 -22 -45 -22 -9 0 -25 -9 -34 -19 -10 -10
-34 -22 -54 -26 -20 -4 -46 -15 -58 -26 -11 -10 -42 -22 -70 -25 -29 -4 -60
-17 -77 -31 -16 -12 -39 -23 -51 -23 -13 0 -31 -9 -41 -20 -10 -11 -30 -20
-45 -20 -14 0 -41 -11 -60 -25 -25 -18 -47 -25 -80 -25 -37 0 -51 -5 -68 -25
-17 -20 -31 -25 -67 -25 -37 0 -49 -5 -72 -30 -18 -20 -36 -30 -56 -30 -16 0
-40 -9 -54 -20 -16 -13 -41 -20 -67 -20 -29 0 -49 -7 -70 -25 -16 -14 -40 -25
-54 -25 -13 0 -37 -11 -54 -25 -22 -19 -41 -25 -75 -25 -36 0 -51 -5 -69 -25
-18 -20 -33 -25 -70 -25 -35 0 -53 -6 -76 -25 -16 -14 -39 -25 -50 -25 -11 0
-33 -11 -50 -25 -27 -23 -37 -25 -132 -25 -96 0 -104 1 -126 25 -16 17 -34 25
-56 25 -23 0 -36 7 -48 25 -11 17 -26 25 -44 25 -17 0 -38 10 -52 25 -13 14
-34 25 -48 25 -13 0 -37 11 -54 25 -16 14 -40 25 -52 25 -12 0 -33 11 -46 25
-14 15 -35 25 -50 25 -15 0 -35 9 -45 20 -10 11 -30 20 -44 20 -51 0 -89 19
-131 64 -39 42 -47 46 -89 46 -35 0 -56 7 -81 25 -19 14 -42 25 -53 25 -10 0
-43 20 -71 45 -44 37 -60 45 -93 45 -30 0 -50 8 -78 30 -21 17 -48 30 -60 30
-12 0 -30 9 -39 19 -10 11 -32 23 -50 27 -17 4 -43 17 -59 30 -19 16 -39 23
-68 22 -27 0 -47 6 -62 20 -12 11 -39 23 -59 26 -21 4 -42 15 -48 25 -8 15
-27 20 -92 26 -54 5 -91 14 -105 24 -30 25 -198 23 -233 -2 -18 -12 -45 -17
-101 -17 -136 0 -160 -7 -218 -61 -29 -27 -62 -49 -73 -49 -11 0 -56 -32 -100
-72 -71 -64 -83 -71 -123 -73 -34 -1 -52 -8 -74 -29 -20 -19 -35 -26 -49 -22
-13 5 -30 -2 -50 -19 -36 -30 -71 -32 -105 -5 -14 11 -39 22 -56 24 -35 4 -77
38 -144 116 -45 53 -47 57 -47 121 0 47 4 70 15 79 8 7 17 27 21 45 4 25 37
64 142 168 76 74 147 137 158 141 12 4 32 15 44 26 13 11 37 20 55 20 19 0 39
8 50 20 10 11 30 20 45 20 15 0 36 10 50 25 22 23 31 25 110 25 79 0 88 -2
110 -25 21 -22 32 -25 95 -25 55 0 78 -4 96 -19 18 -13 49 -20 124 -25 75 -5
107 -12 127 -26 15 -11 39 -20 52 -20 16 0 32 -9 42 -25 14 -21 24 -25 69 -25
42 0 57 -5 76 -24 17 -16 39 -25 77 -28 35 -3 60 -12 75 -27 18 -16 36 -21 75
-21 44 0 54 -4 68 -25 11 -17 25 -25 44 -25 16 0 42 -11 58 -25 23 -19 41 -25
79 -25 40 0 54 -5 73 -25 13 -14 34 -25 46 -25 13 0 35 -11 50 -25 20 -19 38
-25 70 -25 31 0 51 -7 72 -25 17 -14 38 -25 49 -25 18 0 95 -50 118 -76 6 -6
33 -14 60 -18 28 -3 61 -14 75 -24 14 -10 47 -22 74 -25 41 -6 58 -16 102 -57
47 -45 56 -49 97 -48 32 0 54 -6 73 -21 15 -11 38 -21 51 -21 13 0 34 -11 47
-25 13 -14 34 -25 48 -25 14 0 37 -11 52 -25 15 -14 38 -25 52 -25 14 0 35
-11 48 -25 22 -23 32 -26 135 -30 111 -5 112 -5 136 21 22 24 35 28 103 32 56
3 82 9 97 23 12 10 36 22 55 25 19 4 45 15 56 26 13 12 39 20 68 22 31 2 53
10 70 25 17 16 40 24 77 27 35 2 59 10 74 24 12 11 31 20 43 20 12 0 31 9 41
19 31 31 57 41 103 41 31 0 48 6 61 20 9 11 28 20 41 20 14 0 38 11 54 25 17
14 38 25 49 25 11 0 34 11 53 25 24 17 47 25 76 25 32 0 50 6 70 25 15 14 37
25 50 25 13 0 34 11 48 25 19 19 35 25 70 25 34 0 51 6 72 25 15 14 38 25 52
25 13 0 37 11 54 25 16 14 40 25 53 25 13 0 37 11 53 25 17 14 38 25 48 25 10
0 27 9 39 20 14 13 40 22 75 25 35 3 60 11 74 24 12 12 36 24 53 27 18 3 42
17 54 30 17 18 33 24 64 24 27 0 51 7 68 20 14 11 37 20 52 20 15 0 40 11 57
25 16 14 39 25 51 25 11 0 33 12 48 26 21 20 39 27 73 28 31 1 52 8 68 23 19
18 37 23 108 26 152 6 303 5 395 -1z m1008 -1817 c26 -24 47 -51 47 -59 0 -8
6 -21 13 -28 6 -7 24 -29 38 -48 15 -19 41 -50 58 -69 17 -19 31 -41 31 -49 0
-8 23 -40 50 -72 28 -32 50 -67 50 -78 0 -12 11 -33 25 -48 14 -15 25 -36 25
-46 0 -11 10 -34 22 -50 12 -18 23 -52 26 -82 3 -33 12 -59 25 -74 15 -16 22
-37 22 -65 0 -28 7 -52 21 -69 19 -24 22 -45 28 -208 4 -99 4 -261 0 -360 -6
-157 -9 -182 -25 -196 -15 -14 -19 -31 -19 -85 0 -57 -4 -72 -25 -97 -14 -17
-25 -40 -25 -52 0 -23 -16 -57 -37 -78 -7 -7 -13 -35 -13 -61 0 -38 -5 -52
-25 -71 -16 -15 -25 -34 -25 -53 0 -16 -11 -42 -25 -59 -14 -16 -25 -38 -25
-49 0 -10 -11 -26 -25 -35 -16 -10 -25 -26 -25 -41 0 -14 -11 -38 -25 -55 -14
-16 -25 -39 -25 -50 0 -12 -20 -44 -43 -72 -24 -28 -48 -65 -54 -81 -6 -17
-28 -50 -49 -73 -21 -24 -43 -56 -49 -72 -9 -26 -341 -381 -425 -455 -40 -35
-244 -229 -308 -292 -23 -24 -48 -43 -56 -43 -7 0 -25 -9 -39 -20 -14 -11 -40
-23 -57 -27 -21 -4 -56 -29 -100 -73 -50 -49 -78 -69 -104 -74 -20 -4 -40 -15
-46 -26 -6 -11 -26 -22 -48 -26 -25 -4 -51 -20 -80 -50 -36 -37 -51 -44 -95
-50 -42 -5 -62 -15 -104 -50 -28 -24 -59 -44 -68 -44 -9 0 -30 -11 -47 -25
-16 -14 -42 -25 -57 -25 -16 0 -37 -10 -51 -25 -19 -20 -33 -25 -70 -25 -37 0
-51 -5 -70 -25 -15 -16 -35 -25 -54 -25 -20 0 -40 -9 -55 -25 -18 -20 -33 -25
-72 -25 -38 0 -52 -4 -61 -20 -21 -33 -49 -23 -115 42 -60 60 -63 65 -63 111
0 34 -6 57 -20 74 -13 17 -20 41 -20 70 0 33 -6 49 -23 66 -13 12 -27 37 -30
56 -4 19 -16 40 -26 47 -10 8 -22 25 -25 38 -7 28 -57 106 -81 126 -8 7 -15
21 -15 32 0 11 -11 33 -25 50 -14 16 -25 38 -25 49 0 11 -33 55 -74 98 -40 42
-77 88 -81 101 -11 35 -69 100 -258 290 -199 200 -242 240 -262 240 -8 0 -41
25 -72 55 -32 30 -66 58 -75 61 -11 3 -18 15 -18 30 0 20 5 24 28 24 20 0 39
-13 70 -45 32 -35 49 -45 73 -45 21 0 37 -8 51 -25 11 -14 30 -25 43 -25 14 0
46 -23 88 -64 38 -37 80 -69 103 -76 29 -10 99 -75 295 -271 166 -167 259
-268 264 -286 3 -15 10 -30 13 -33 29 -21 131 -151 136 -173 4 -16 41 -63 85
-107 l79 -80 87 0 c78 0 90 3 117 25 16 14 40 25 52 25 12 0 37 11 56 25 25
18 47 25 80 25 37 0 52 5 70 25 17 18 34 25 61 25 25 0 47 8 67 25 17 14 44
28 60 31 17 4 39 15 48 25 10 11 30 19 49 19 21 0 40 9 55 25 13 14 34 25 46
25 13 0 35 11 50 25 15 14 32 25 38 25 14 0 95 55 119 80 10 11 27 20 38 20
11 0 41 20 66 45 26 24 60 47 75 50 29 7 79 47 173 139 28 27 66 55 85 63 44
19 280 260 280 287 0 10 21 42 48 69 26 28 59 63 74 79 14 15 29 41 33 56 3
16 26 48 50 72 29 28 45 53 45 68 0 13 11 37 25 54 14 16 25 40 25 54 0 14 10
30 24 39 14 9 26 29 29 49 3 18 17 45 32 60 23 23 26 32 20 65 -5 32 -2 43 19
68 20 24 26 42 26 80 0 40 5 56 25 77 20 21 25 38 25 76 0 38 5 55 25 75 l24
27 1 360 0 360 -25 30 c-21 25 -25 39 -25 98 0 58 -4 73 -25 98 -21 25 -25 40
-25 98 0 55 -4 72 -21 91 -15 15 -24 40 -27 75 -3 36 -13 62 -28 81 -13 16
-24 39 -24 53 0 14 -10 30 -25 40 -14 9 -25 26 -25 39 0 12 -9 34 -20 48 -11
14 -20 37 -20 52 0 14 -11 37 -25 51 -24 24 -32 54 -18 67 3 4 20 7 37 7 23 0
44 -12 79 -45z m-10672 -305 c38 -21 12 -79 -31 -65 -33 10 -27 65 8 74 2 1
12 -4 23 -9z m109 -55 c18 -22 3 -55 -25 -55 -33 0 -51 33 -29 54 19 20 38 20
54 1z"/>
<path d="M11385 15668 c-170 -11 -333 -34 -351 -49 -9 -7 -14 -31 -14 -66 0
-50 3 -57 46 -103 26 -28 52 -50 58 -50 6 0 50 -34 96 -75 64 -56 113 -89 196
-129 61 -30 124 -58 140 -62 16 -4 41 -13 56 -21 41 -20 174 -43 254 -43 89 0
208 30 299 74 73 36 182 79 226 89 34 8 85 56 92 85 10 42 -11 78 -64 108 -68
39 -77 44 -129 79 -52 35 -98 54 -155 64 -22 4 -56 13 -75 19 -200 67 -226 72
-345 78 -66 2 -138 6 -160 8 -22 1 -98 -1 -170 -6z"/>
<path d="M63 4379 c5 -788 6 -814 62 -1124 117 -638 388 -1229 801 -1745 198
-247 544 -572 786 -737 38 -26 71 -43 75 -39 5 4 8 225 8 490 l-1 482 -22 29
c-18 22 -22 41 -22 96 0 56 -4 72 -24 96 -16 19 -25 45 -28 82 -3 31 -12 59
-20 65 -23 17 -38 52 -38 88 0 18 -9 47 -20 63 -11 17 -20 39 -20 51 0 12 -13
35 -30 52 -17 18 -30 40 -30 50 0 11 -9 27 -19 36 -10 10 -22 32 -25 50 -4 18
-15 41 -26 51 -11 10 -20 30 -20 45 0 19 -16 44 -52 82 -92 96 -99 108 -96
147 5 63 32 53 144 -53 54 -52 110 -97 124 -99 15 -3 69 -50 130 -113 58 -59
117 -120 132 -135 16 -15 28 -35 28 -44 0 -9 13 -29 28 -43 44 -42 122 -150
122 -170 0 -9 23 -39 50 -67 35 -34 50 -57 50 -75 0 -15 11 -37 25 -50 14 -13
25 -34 25 -48 0 -13 11 -37 25 -54 18 -21 25 -41 25 -72 0 -30 6 -48 20 -61
11 -10 23 -34 26 -54 4 -20 15 -45 25 -56 13 -15 19 -41 22 -98 3 -64 7 -81
27 -102 18 -19 24 -38 25 -75 1 -38 7 -55 23 -70 19 -18 22 -32 23 -108 1 -48
5 -239 8 -425 l6 -339 68 -29 c204 -86 517 -177 772 -224 318 -57 324 -58
1242 -62 821 -4 853 -4 846 14 -3 10 -17 28 -30 40 -13 12 -23 31 -23 42 0 12
-22 44 -50 73 -27 29 -50 61 -50 72 0 10 -11 31 -25 48 -14 16 -25 38 -25 49
0 10 -8 27 -17 37 -56 56 -133 156 -133 173 0 10 -4 19 -9 19 -12 0 -130 146
-141 174 -4 13 -46 63 -93 112 -46 49 -98 104 -115 123 -18 19 -32 43 -32 54
0 13 -29 49 -72 92 -40 38 -213 212 -385 385 -460 465 -548 550 -573 550 -13
0 -59 38 -128 108 -126 126 -258 242 -276 242 -7 0 -23 12 -37 26 -37 40 -186
164 -198 164 -9 0 -46 33 -164 144 -23 21 -59 47 -82 56 -22 10 -77 55 -123
99 -46 46 -100 90 -125 100 -25 11 -80 56 -134 110 -64 63 -99 91 -116 91 -13
0 -34 12 -48 26 -29 32 -185 164 -194 164 -3 0 -46 34 -96 75 -50 41 -98 75
-108 75 -9 0 -47 32 -85 70 -37 39 -71 70 -76 70 -4 0 -21 14 -38 30 -18 17
-38 30 -45 30 -8 0 -29 15 -48 33 -158 148 -221 203 -247 212 -17 5 -94 71
-172 148 -84 82 -148 137 -160 137 -22 0 -158 128 -495 465 -115 116 -219 217
-230 225 -11 8 -35 32 -53 54 l-33 38 4 -733z"/>
</g>
</svg>
